# xmcd
#
# Track frame offsets:
#	150
#	27615
#	39313
#	58029
#	71438
#	88524
#
# Disc length: 3079 seconds
#
# Revision: 1
# Processed by: cddbd v1.4PL0 Copyright (c) Steve Scherf et al.
# Submitted via: audiograbber 1.80.04
#
DISCID=490c0506
DTITLE=Viva Vice and Soul-junk - The scissors and blues series 3 of 6
DYEAR=2002
DGENRE=Christian Rock
TTITLE0=Viva Voce - Welcome Mat
TTITLE1=Viva Voce - Paper Doll
TTITLE2=Viva Voce - All Daughter Raise Your Hand
TTITLE3=Soul-junk - Soft Adult Contempt
TTITLE4=Soul-junk - Shining Path (ill-m-i pt.2)
TTITLE5=Soul-junk - Slither Hither
EXTD=50/50 split of Viva Voce and Soul-junk www.cutandpastecollective.com
EXTT0=
EXTT1=
EXTT2=
EXTT3=
EXTT4=Feat. DJ Mizzicah On The Record Player
EXTT5=
PLAYORDER=
